HIERARCHY
ROOT Hips
{
  OFFSET 13.6774 106.653 -34.4427
  CHANNELS 6 Xposition Yposition Zposition Zrotation Xrotation Yrotation
  JOINT ToSpine
  {
    OFFSET -2.69724 7.43032 -0.144315
    CHANNELS 3 Zrotation Xrotation Yrotation
    JOINT Spine
    {
      OFFSET -0.0310711 10.7595 1.96963
      CHANNELS 3 Zrotation Xrotation Yrotation
      JOINT Spine1
      {
        OFFSET 19.9056 3.91189 0.764692
        CHANNELS 3 Zrotation Xrotation Yrotation
        JOINT Neck
        {
          OFFSET 25.9749 7.03908 -0.130764
          CHANNELS 3 Zrotation Xrotation Yrotation
          JOINT Head
          {
            OFFSET 9.52751 0.295786 -0.907742
            CHANNELS 3 Zrotation Xrotation Yrotation
            End Site
            {
              OFFSET 16.4037 0.713936 2.7358
            }
          }
        }
        JOINT LeftShoulder
        {
          OFFSET 17.7449 4.33886 11.7777
          CHANNELS 3 Zrotation Xrotation Yrotation
          JOINT LeftArm
          {
            OFFSET 0.911315 1.27913 9.80584
            CHANNELS 3 Zrotation Xrotation Yrotation
            JOINT LeftForeArm
            {
              OFFSET 28.6126 1.18197 -3.53199
              CHANNELS 3 Zrotation Xrotation Yrotation
              JOINT LeftHand
              {
                OFFSET 27.5088 0.0218783 0.327423
                CHANNELS 3 Zrotation Xrotation Yrotation
                End Site
                {
                  OFFSET 18.6038 -0.000155887 0.382096
                }
              }
            }
          }
        }
        JOINT RightShoulder
        {
          OFFSET 17.1009 2.89543 -12.2328
          CHANNELS 3 Zrotation Xrotation Yrotation
          JOINT RightArm
          {
            OFFSET 1.4228 0.178766 -10.211
            CHANNELS 3 Zrotation Xrotation Yrotation
            JOINT RightForeArm
            {
              OFFSET 28.733 1.87905 2.64907
              CHANNELS 3 Zrotation Xrotation Yrotation
              JOINT RightHand
              {
                OFFSET 27.4588 0.290562 -0.101845
                CHANNELS 3 Zrotation Xrotation Yrotation
                End Site
                {
                  OFFSET 17.8396 -0.255518 -0.000602873
                }
              }
            }
          }
        }
      }
    }
  }
  JOINT LeftUpLeg
  {
    OFFSET -5.61296 -2.22332 -10.2353
    CHANNELS 3 Zrotation Xrotation Yrotation
    JOINT LeftLeg
    {
      OFFSET 2.56703 -44.7417 -7.93097
      CHANNELS 3 Zrotation Xrotation Yrotation
      JOINT LeftFoot
      {
        OFFSET 3.16933 -46.5642 -3.96578
        CHANNELS 3 Zrotation Xrotation Yrotation
        JOINT LeftToeBase
        {
          OFFSET 0.346054 -6.02161 12.8035
          CHANNELS 3 Zrotation Xrotation Yrotation
          End Site
          {
            OFFSET 0.134235 -1.35082 5.13018
          }
        }
      }
    }
  }
  JOINT RightUpLeg
  {
    OFFSET -5.7928 -1.72406 10.6446
    CHANNELS 3 Zrotation Xrotation Yrotation
    JOINT RightLeg
    {
      OFFSET -2.57161 -44.7178 -7.85259
      CHANNELS 3 Zrotation Xrotation Yrotation
      JOINT RightFoot
      {
        OFFSET -3.10148 -46.5936 -4.03391
        CHANNELS 3 Zrotation Xrotation Yrotation
        JOINT RightToeBase
        {
          OFFSET -0.0828122 -6.13587 12.8035
          CHANNELS 3 Zrotation Xrotation Yrotation
          End Site
          {
            OFFSET -0.131328 -1.35082 5.13018
          }
        }
      }
    }
  }
}
MOTION
Frames: 21
Frame Time: 0.03333333333333333
0.0000 93.1000 0.0000 67.4704 -13.7043 -25.0157 -71.0925 -0.0032 87.4920 138.4776 50.6824 -64.0500 9.3131 17.3137 -3.9779 -165.0259 34.1729 156.4133 172.8002 73.3066 -144.4737 -0.6988 -13.8773 -20.8284 -79.1837 42.6644 -170.2359 6.6865 28.4908 -17.7169 8.9821 -1.6535 -6.4352 -0.7548 0.8175 33.1221 -77.8848 -47.9847 95.9362 11.5438 -6.6258 60.3130 16.0279 0.1892 1.2430 -20.5541 6.1133 86.9782 -13.7634 71.9255 -7.7688 5.6314 -4.3989 -0.7493 -9.3920 -38.2099 15.5866 2.5985 -13.0281 66.8464 150.2886 80.8962 -148.3607 -7.8435 -4.0348 0.8236 11.2447 -27.4014 -14.2898 
0.0000 93.1000 0.0000 65.6699 -15.1382 -28.6814 -71.0141 0.3313 87.5404 137.5819 51.0996 -62.9380 8.9002 17.0009 -3.8606 -166.0927 34.8582 158.3280 172.9216 73.5654 -144.3978 -0.2104 -12.9443 -19.8079 -70.6205 32.4385 -174.1804 13.1296 21.2072 -29.0433 11.3075 -1.4287 -8.2307 -0.4620 1.0402 33.5583 -74.8572 -48.0704 93.9142 10.5915 -6.7240 54.9038 15.8191 0.6667 1.8557 -24.3871 6.1470 90.5354 -11.4859 68.9684 -11.0907 5.7124 -5.1294 -0.9161 -9.3837 -39.0826 13.5884 1.5275 -11.6285 69.8137 138.2311 84.0105 -137.6812 -7.4064 -3.1059 0.8741 11.2787 -26.1342 -14.3346 
0.0000 93.1000 0.0000 63.4395 -19.7106 -31.1321 -70.9657 -1.2211 87.4582 136.7449 52.2694 -61.0174 7.3004 17.8300 -6.3826 -165.0044 33.7320 160.8511 176.7830 73.2323 -148.7964 -2.3075 -11.3803 -21.6146 -66.9000 31.8548 -170.0169 15.0696 17.9434 -37.8032 13.5376 -4.0355 -5.9275 -0.5696 1.5152 31.8007 -70.9636 -51.1407 94.0530 5.0413 -3.1013 49.3121 12.8058 5.6564 5.0315 -29.3185 7.2335 93.1340 -10.1958 65.7309 -15.7107 3.6703 -6.4595 0.9056 -10.1646 -38.3416 15.1417 -2.3488 -10.6715 70.0788 102.0342 85.9858 -101.6763 -7.9917 -4.1075 -1.2826 10.3265 -14.0836 -16.5418 
0.0000 93.1000 0.0000 58.4669 -22.9782 -34.1037 -71.1233 0.4101 87.6320 135.5315 55.3475 -58.4308 8.8220 18.6902 -5.1761 -163.4305 33.8448 160.7870 -179.6689 73.4532 -152.9278 0.7950 -10.4207 -23.9831 -64.1998 34.5937 -160.9813 14.1434 17.2176 -35.7762 11.3687 -1.2780 -7.5883 -0.7391 2.6934 32.2636 -66.3769 -53.1980 95.7813 -5.6924 6.6035 44.3535 12.6546 0.8157 2.0076 -32.5975 8.0316 90.3686 -10.3733 66.1195 -15.0054 1.3513 -8.4381 -0.9395 -7.9063 -35.6014 19.2655 -8.7988 -7.2519 67.7768 51.7035 84.9600 -48.6099 -6.7984 -7.2660 0.7906 7.6408 -11.4908 -14.0851 
0.0000 93.1000 0.0000 55.3561 -27.4186 -36.2973 -71.1644 0.1854 87.6788 136.6781 58.0559 -55.8928 9.6707 19.4655 -4.9012 -163.6686 32.3712 161.8665 -175.6283 72.3469 -160.6699 0.8213 -8.2424 -25.7932 -66.1446 39.0921 -150.0169 10.7031 20.7678 -26.3017 12.9395 -1.4470 -5.6700 -1.0099 2.8662 32.7434 -64.1107 -53.2100 97.9650 -8.9140 11.5795 41.9824 12.4167 1.0360 1.9434 -31.2393 7.0563 83.8343 -16.4709 74.6589 -5.3727 -0.5146 -4.6374 -0.7730 -7.4459 -29.3265 19.1744 -13.1991 -3.1336 66.7204 32.4421 82.7188 -23.7910 -7.2222 -4.0520 -0.2162 10.1007 -20.7776 -14.8752 
0.0000 93.1000 0.0000 53.6018 -33.5138 -38.1629 -71.1513 0.0968 87.7704 138.5571 59.1140 -56.8977 10.6876 20.5884 -3.6606 -165.6753 30.8713 166.3128 -171.5375 71.3027 -164.7374 1.3052 -6.0606 -28.6579 -84.9555 47.9141 -125.9046 4.7390 33.8427 -14.4962 13.6504 -1.1618 -3.4831 -0.7937 2.7893 32.9128 -67.2784 -52.1652 99.0154 -7.4104 11.3091 40.8325 11.8387 0.5225 2.1238 -29.5091 3.1850 77.9222 -53.1831 83.3641 37.0919 0.9180 1.7788 -0.7313 -7.4025 -27.6538 18.0962 -20.1009 -0.4197 66.8534 32.0078 81.7560 -21.8113 -7.4113 -5.9946 0.4092 9.4593 -20.3539 -14.1351 
0.0000 93.1000 0.0000 48.6455 -41.5248 -41.5110 -70.9753 -0.1162 87.5648 142.5779 59.1375 -57.9472 11.8509 21.8728 -3.7826 -168.8884 30.0333 169.3580 -167.1415 69.6914 -170.2069 1.7714 -4.3471 -31.9023 -101.9743 46.9964 -100.9359 -0.8272 39.8130 -4.7623 14.8715 -1.2933 -1.3756 -1.1819 2.2107 32.9810 -71.4043 -50.1348 102.8412 -7.7605 11.0749 40.8378 11.9484 -0.0151 2.5122 -26.6968 2.1859 74.5709 -155.5827 78.6304 148.6215 4.8020 5.0603 -1.2385 -7.9922 -36.8119 17.9302 -26.2404 6.1845 68.7230 33.0783 81.7730 -22.3197 -7.6837 -7.3112 0.8756 8.6384 -18.9989 -11.6097 
0.0000 93.1000 0.0000 40.5196 -47.9835 -47.6316 -70.8321 -0.1185 87.5775 146.5952 59.3790 -58.9260 11.8970 23.1790 -3.5719 -170.9716 28.2786 171.9205 -161.2547 68.1810 -175.5216 1.8401 -3.2168 -31.7991 -107.3303 42.0890 -84.9804 -5.0763 38.4076 2.9867 14.7065 -0.9017 -0.1575 -1.1986 1.9823 31.8125 -76.3707 -49.9790 107.7709 -7.9695 7.8144 46.7559 12.1610 -0.2534 3.2477 -17.4370 1.6445 73.8129 -167.5529 68.7965 163.4792 5.9640 5.5144 -1.1112 -8.8796 -39.5915 17.2106 -32.0757 12.1542 73.7103 28.0136 80.5840 -14.2496 -8.3193 -8.8569 1.1485 8.9784 -19.8369 -12.0131 
0.0000 93.1000 0.0000 31.0152 -50.5620 -56.9565 -70.7416 -0.2314 87.5613 147.4291 60.6668 -60.1159 10.3460 24.5044 -2.8949 -174.9571 26.9618 174.5682 -160.1974 66.8425 -176.6005 1.5556 -3.3205 -30.8274 -106.0640 40.8381 -72.9861 -9.0996 37.0445 7.1473 14.0975 -0.5641 -0.0801 -1.2780 2.0546 27.6731 -81.1436 -51.0157 114.5780 -3.9021 3.0574 55.1705 10.5152 -0.6354 3.3057 -4.7973 -0.1445 75.6939 -167.2679 65.4868 160.5750 6.4279 3.3032 -0.8458 -8.9649 -38.9910 15.1328 -37.4089 14.0409 78.9778 18.9897 77.4470 -2.0481 -10.0566 -9.9746 1.1914 9.7508 -23.0724 -13.0353 
0.0000 93.1000 0.0000 23.2646 -53.3521 -67.9130 -70.7288 -0.1014 87.7930 150.4029 61.3912 -65.6255 8.1953 26.2057 -2.9888 -177.0968 26.3966 176.4258 -158.6778 66.4784 -179.2216 1.9676 -5.0762 -30.6964 -102.3241 40.9324 -67.0464 -11.9454 40.5103 7.4263 12.8693 -0.2524 -2.1482 -1.1842 2.8708 22.8718 -83.4331 -50.9018 123.8894 2.4048 -0.7290 66.7566 10.4428 -1.7020 3.2900 2.4477 -0.3233 81.4880 -165.0190 69.5241 155.7937 5.4251 2.0199 -0.7721 -8.1713 -40.1477 14.2614 -47.0072 10.0790 85.7180 10.8961 69.5158 10.7458 -10.5642 -10.9764 1.4393 10.0910 -23.7402 -11.8591 
0.0000 93.1000 0.0000 18.1926 -52.5188 -75.8699 -70.7321 0.7958 88.1939 151.4201 62.3624 -68.2057 5.1648 27.1561 -4.8227 -176.1405 25.8947 174.1764 -155.6602 65.8540 -182.3078 1.4972 -6.2446 -29.7585 -98.5518 41.0645 -67.1049 -14.9478 43.4310 8.1804 14.4220 -0.5951 -2.5320 0.3018 2.3027 18.0602 -84.4278 -50.4312 130.9445 9.6484 -3.1624 77.7502 10.7605 -0.2260 6.1382 8.2135 2.0880 90.0189 -155.3962 78.3255 144.3071 4.6711 1.8068 -0.8730 -8.5111 -40.2210 15.3624 -55.9819 7.1160 91.0755 6.0682 58.7197 16.7184 -11.1600 -12.1232 1.0833 9.3548 -19.8238 -12.3674 
0.0000 93.1000 0.0000 18.1457 -50.5783 -78.7294 -70.9637 0.3060 87.8718 147.5372 64.1941 -66.8758 3.8388 27.3866 -5.9835 -171.1801 26.1513 172.4609 -152.7289 65.3378 176.8010 1.7236 -7.1887 -29.7347 -99.3098 40.1175 -73.2609 -16.7540 48.8780 11.0783 14.3593 -0.9224 -3.9348 -0.1458 2.6200 15.9911 -82.1174 -49.0438 133.5733 14.6550 -2.1517 84.8510 10.1356 -0.7607 6.5795 8.3409 2.9929 97.8076 -112.4097 84.2620 101.7108 3.4406 0.4205 -0.6806 -8.9241 -38.1050 14.3323 -62.8206 4.2613 94.9228 3.4614 47.4933 14.0758 -9.3606 -11.8921 0.6549 -2.9760 -1.4000 -4.3467 
0.0000 93.1000 0.0000 21.2774 -48.4662 -74.6007 -71.0350 -0.0300 88.0966 140.3191 66.0803 -56.8994 4.2346 26.6634 -8.3198 -166.1329 26.3146 170.1402 -151.2824 64.5367 175.5474 1.1596 -6.0379 -30.6058 -96.2809 37.8099 -86.3548 -17.4668 49.0428 11.2031 13.8553 -1.5391 -3.9308 -0.1490 1.6254 17.5131 -75.0366 -45.9881 131.8551 14.2718 -2.1574 85.7487 8.3804 0.2413 8.5295 4.0610 2.0876 100.5691 -58.1812 84.6858 45.3845 2.7097 0.5980 -1.2699 -8.4561 -35.6627 13.5293 -64.7774 5.2239 91.9210 3.4461 46.7581 7.6771 -4.4147 -2.2565 -0.1875 -39.5038 42.4937 37.4593 
0.0000 93.1000 0.0000 21.3630 -48.5572 -71.7356 -70.8563 0.0863 87.9002 137.4048 66.9778 -51.7982 6.8435 25.5262 -9.0959 -165.2453 26.0690 169.8205 -152.0307 64.3690 177.0616 1.4642 -5.0062 -31.4240 -93.4301 34.7873 -101.5215 -17.2768 43.2557 10.0832 14.2066 -1.3662 -3.6077 -0.5322 1.8234 20.9779 -68.2379 -44.9538 126.8253 17.0090 -4.3989 79.7495 6.6856 0.4195 8.0910 -4.9700 1.9976 98.7440 -39.2923 82.4744 25.4931 3.6270 -0.5424 -1.4194 -9.5701 -35.8041 12.8016 -61.8589 9.6306 89.2602 3.7737 62.9615 -0.9666 -4.7520 1.5837 -0.3567 -45.7991 56.4229 37.5948 
0.0000 93.1000 0.0000 23.2840 -50.3974 -73.7250 -70.8231 0.0317 87.5013 134.3964 66.6903 -53.9156 9.7320 24.9271 -8.5637 -165.2359 25.2151 169.1969 -154.8419 64.2714 178.5487 2.4141 -4.4185 -31.1119 -92.4762 33.0172 -116.6055 -14.1289 41.1634 7.2313 15.3630 -0.8528 -3.6330 -0.4970 1.9720 25.1049 -64.0658 -46.8527 118.8222 17.9017 -7.6233 68.1363 5.7129 0.0356 5.3848 -18.0485 -0.4476 100.6899 -18.2618 76.3871 1.5965 5.0129 1.7883 -0.9816 -10.3122 -46.3332 9.3199 -53.8581 8.9104 89.1409 63.8290 85.4962 -65.1096 -4.7371 1.9628 -0.3653 -19.2210 57.7157 -1.2646 
0.0000 93.1000 0.0000 34.3839 -50.3339 -68.9244 -71.1164 0.4393 87.5849 129.4175 64.5536 -54.8153 9.3608 22.5789 -7.2943 -165.2416 24.8181 170.1110 -158.1781 64.6871 -177.5948 2.0847 -4.1346 -28.5228 -92.3336 27.7402 -132.4836 -9.0692 36.8271 0.3064 15.1822 -0.8603 -3.6157 -0.8286 0.9012 28.1310 -64.0224 -50.9142 108.5871 18.1693 -13.3277 51.6763 7.2444 -0.4210 3.3953 -28.0268 -9.7702 98.4350 -11.3897 71.6261 -3.7753 6.2305 0.9008 -0.8042 -11.0576 -46.9214 9.8329 -41.6073 3.4246 87.0538 167.9091 66.8907 -170.0256 -4.5583 -1.1434 0.3660 -3.5004 48.1786 -18.1933 
0.0000 93.1000 0.0000 40.4414 -45.5832 -64.0796 -70.9645 0.1033 87.3044 123.5082 62.9336 -51.8758 6.0065 19.7407 -4.6616 -165.2770 25.0247 171.0288 -160.5728 65.3573 -175.3948 1.3575 -6.0010 -24.6177 -93.4656 25.6892 -145.0876 0.7844 30.1064 -12.5983 16.7458 -1.6281 -3.5858 -1.1141 0.4822 30.0649 -69.2274 -55.7905 90.7109 21.8666 -21.7941 44.8116 7.3744 0.2393 2.6386 -34.0931 -13.8822 93.7894 -9.7637 66.7164 -8.5368 5.9509 -0.7744 -0.9358 -11.2592 -46.9463 8.7148 -22.7110 1.0533 86.2255 169.6752 50.8864 -170.5771 -6.8330 -3.8911 0.5994 4.3484 31.1353 -23.6623 
0.0000 93.1000 0.0000 40.2784 -43.2673 -63.5278 -70.9352 0.0234 87.3058 119.4518 62.8664 -47.6042 3.0577 18.1822 -1.5059 -166.3005 24.8015 171.9791 -161.0883 64.5886 -176.6345 0.9964 -5.4452 -19.8939 -95.3495 25.7887 -151.9205 12.9142 20.5414 -28.6770 17.4639 -1.8905 -5.5767 -0.8602 0.5529 30.0622 -72.2023 -59.0197 71.7191 21.0536 -20.1770 45.0327 5.7337 0.0507 2.5578 -43.1504 -10.2710 90.4315 -6.7664 58.6061 -15.7219 6.4221 -4.3995 -1.7606 -10.1519 -44.8290 12.0488 -3.8734 1.6639 88.1681 170.6455 46.8212 -169.5069 -8.0337 -3.0022 0.7929 8.1560 3.3122 -25.0437 
0.0000 93.1000 0.0000 37.2877 -43.6165 -62.8727 -71.0703 0.1017 87.5565 115.5085 62.7499 -41.7771 1.2974 16.5515 2.3364 -166.3387 23.0276 173.3594 -157.6946 62.2918 -180.1986 0.8615 -4.1308 -16.5964 -103.2979 32.9876 -143.8789 21.0762 15.8373 -51.4738 19.9397 -1.8621 -7.2126 -0.8871 2.9117 25.9846 -74.2127 -63.8257 57.8145 16.9941 -16.1545 43.9559 4.6198 -0.1709 2.9081 -55.9643 -5.5169 86.0825 -4.7926 46.6604 -19.0487 2.6839 -7.0075 -1.3306 -8.5922 -36.6044 13.8990 8.0843 2.2473 89.4096 169.8430 53.7588 -170.4906 -9.7251 -5.1070 1.3295 8.9146 -14.0918 -20.0335 
0.0000 93.1000 0.0000 35.2382 -47.3118 -59.9968 -71.0912 -0.3719 87.3995 122.5788 61.4890 -43.6697 2.6643 16.6181 3.3087 -167.3375 21.1416 172.5665 -151.9101 59.4397 172.6569 0.4737 -2.3253 -15.4003 -101.4236 35.8835 -134.8218 25.9989 10.0065 -67.6397 19.5464 -2.0438 -7.5380 -1.1823 4.8018 23.9234 -84.0397 -63.8875 44.0680 6.8502 -5.9014 41.1427 3.3919 -0.0645 3.8749 -68.9403 2.7410 93.2310 2.3906 36.6114 -26.4547 -2.9417 -2.9965 -0.2825 -5.0832 -13.7968 10.3667 8.2980 -0.0734 86.2971 166.0112 70.9670 -164.3598 -8.5840 -7.8346 1.2927 10.2968 -21.6238 -19.8364 
0.0000 93.1000 0.0000 31.3190 -49.2546 -61.8346 -71.1992 -0.0397 87.4293 124.4904 61.0445 -43.8003 5.5203 17.4917 5.2368 -171.2420 19.8924 171.1516 -152.4736 57.4312 170.1244 0.8719 -2.0801 -18.8703 -89.3153 30.8910 -128.8752 25.0585 8.8057 -68.8372 15.2215 -1.7995 -7.7209 -0.9182 4.9805 25.8646 -85.2114 -61.1018 46.7989 -1.9988 4.9131 40.0825 3.2834 -0.4395 3.9382 -71.7228 2.2347 81.8105 -2.7721 40.7730 -10.5804 0.7968 4.2379 -1.0359 -5.0864 -6.9004 14.9304 6.2625 -1.1824 83.3470 45.9527 84.6642 -43.8239 -8.2043 -5.0280 0.9147 11.9834 -29.8066 -16.8682 
